<svg xmlns="http://www.w3.org/2000/svg" xmlns:xlink="http://www.w3.org/1999/xlink" width="25" height="25"><defs><path id="a" d="M1416.3 94h-14.6a3.71 3.71 0 0 0-3.7 3.71V105c0 .44.36.8.8.8h12.45l-1.79 1.8a.81.81 0 0 0 .57 1.38.8.8 0 0 0 .57-.24l3.17-3.17a.81.81 0 0 0 0-1.14l-3.17-3.17a.81.81 0 0 0-1.14 0 .81.81 0 0 0 0 1.15l1.79 1.78h-11.63v-6.48c0-1.15.93-2.1 2.08-2.1h14.6a2.1 2.1 0 0 1 2.08 2.1v14.58a2.1 2.1 0 0 1-2.09 2.1h-14.59a2.1 2.1 0 0 1-2.08-2.1v-1.9a.81.81 0 0 0-1.62 0v1.9a3.72 3.72 0 0 0 3.7 3.71h14.6c2.04 0 3.7-1.66 3.7-3.71V97.7a3.72 3.72 0 0 0-3.7-3.71z"/></defs><use fill="#fdd379" xlink:href="#a" transform="translate(-1396 -92)"/></svg>