<svg xmlns="http://www.w3.org/2000/svg" xmlns:xlink="http://www.w3.org/1999/xlink" width="114" height="148"><defs><path id="a" d="M955.46 57.4l36.68 59.56-7.89 7.23-28.1-46.13-6.17 11.36-6.17-10.32zm-19.88 59.22l-3.77 7.57-24-38.9V71.52zM907.8 57.75l31.54 51.64-3.09 6.2-28.45-46.13zm0-13.08l35.3 57.49-2.74 5.16-32.56-53.01zm0-10.67l38.4 62.65-1.03 2.41-37.37-60.59zm103.08 109.3l3.07 2.08a10.41 10.41 0 0 1-18.9-6.22c.18-5.27 4.2-9.54 9.27-10.13l.3 3.73a6.68 6.68 0 1 0 6.26 10.54zm-103.15 4.5l9.74-18.65 9.63 18.24-3.19 2.02-6.44-12.26-6.49 12.5zm79.76-14.89l-7.03 6.99 8.4 8.35-2.6 2.79-11.17-11.14 9.8-9.77zm-19.47 26.71v-40.45h3.78v40.45zm-6.2-20.2a10.4 10.4 0 0 1-10.33 10.37 10.4 10.4 0 0 1-10.22-8.47h-4.2v6.28h-3.77v-15.82h3.78v5.81h4.13A10.48 10.48 0 0 1 951.5 129c5.67 0 10.34 4.68 10.34 10.43zm-3.72 0a6.68 6.68 0 0 0-6.61-6.75 6.74 6.74 0 0 0-6.73 6.76 6.71 6.71 0 0 0 6.73 6.63 6.65 6.65 0 0 0 6.61-6.63zm18.63 26.6c-.46.4-1.03.6-1.7.6-.7 0-1.27-.2-1.72-.6a2.4 2.4 0 0 1-.82-1.5h1.53c.07.23.19.4.37.53.19.12.4.18.63.18.54 0 .88-.24 1-.7h1.53a2.3 2.3 0 0 1-.82 1.5zM905 167.63h6.12v1.82h-2.04v6.7h-2.04v-6.7H905zm111 0v8.52h-2.04v-6.26l-2.27 6.26h-1.7l-2.26-6.26v6.26h-2.04v-8.52h2.96l2.2 6.06 2.19-6.06zm-13.45 1.05a4.46 4.46 0 0 1 1.29 3.23c0 1.25-.43 2.31-1.3 3.2a4.31 4.31 0 0 1-3.21 1.32 4.33 4.33 0 0 1-3.22-1.32 4.4 4.4 0 0 1-1.3-3.2 4.48 4.48 0 0 1 4.52-4.56c1.28 0 2.36.44 3.22 1.33zm-.75 3.23a2.7 2.7 0 0 0-.68-1.86 2.28 2.28 0 0 0-1.8-.76c-.73 0-1.33.26-1.78.76-.46.51-.68 1.13-.68 1.86 0 .73.22 1.34.67 1.84.45.5 1.05.74 1.8.74a2.3 2.3 0 0 0 1.78-.75c.46-.5.69-1.12.69-1.83zm-9.19 2.43h1.01v3.97h-2v-2.16h-6.1v2.16h-2v-3.97h1.02l3.12-6.71h1.84zm-2.3 0l-1.73-3.94-1.74 3.94zm-13.4-6.71h2.05v8.52h-2.04v-5.52l-3.78 5.52h-2.04v-8.52h2.04v5.52zm-10.13 0h2.04v8.52h-2.04zm-1.62 3.82c.46.5.69 1.14.69 1.93 0 .84-.27 1.52-.8 2.02s-1.22.75-2.06.75h-3.86v-8.52h2.04v2.98h1.82c.94 0 1.66.28 2.17.84zm-1.35 1.93a.97.97 0 0 0-.2-.63c-.19-.21-.46-.32-.83-.32h-1.61v1.9h1.6c.32 0 .58-.07.76-.23.18-.16.28-.4.28-.72zm-6.9-1c.29.35.43.76.43 1.23 0 .72-.24 1.31-.71 1.77-.52.52-1.24.77-2.16.77h-3.64v-8.52h3.74c.8 0 1.43.24 1.88.72.38.42.58.93.58 1.51 0 .4-.12.75-.35 1.06-.24.31-.55.55-.94.71.5.14.9.4 1.17.75zm-4.04-1.46h1.34a.9.9 0 0 0 .58-.2.7.7 0 0 0 .24-.57c0-.2-.05-.37-.16-.5-.15-.18-.37-.27-.66-.27h-1.34zm2.47 2.62c0-.2-.05-.37-.15-.51-.18-.24-.46-.35-.86-.35h-1.46v1.72h1.46c.37 0 .64-.1.81-.3.13-.15.2-.34.2-.56zm-7.65-4.86a4.46 4.46 0 0 1 1.29 3.23c0 1.25-.43 2.31-1.29 3.2a4.31 4.31 0 0 1-3.22 1.32 4.33 4.33 0 0 1-3.21-1.32 4.4 4.4 0 0 1-1.3-3.2 4.48 4.48 0 0 1 4.51-4.56c1.29 0 2.36.44 3.22 1.33zm-.75 3.23a2.7 2.7 0 0 0-.68-1.86 2.28 2.28 0 0 0-1.79-.76c-.74 0-1.33.26-1.79.76-.45.51-.68 1.13-.68 1.86 0 .73.22 1.34.67 1.84.45.5 1.05.74 1.8.74a2.3 2.3 0 0 0 1.78-.75c.46-.5.69-1.12.69-1.83zm-13-4.28h4.81v1.82h-2.78v6.7h-2.04zm-3.1.98a4.47 4.47 0 0 1 1.24 3.28c0 1.23-.37 2.28-1.12 3.14-.8.93-1.85 1.4-3.14 1.4a3.5 3.5 0 0 1-1.25-.22c-.52-.19-.96-.52-1.31-.98l-.03 3.77h-2.05v-11.37h1.88v1.1c.33-.51.8-.9 1.4-1.13a4.08 4.08 0 0 1 4.38 1zm-.8 3.27c0-.66-.19-1.23-.57-1.71a2.25 2.25 0 0 0-1.87-.88c-.73 0-1.34.24-1.8.73a2.6 2.6 0 0 0-.7 1.87c0 .8.23 1.43.68 1.9.46.47 1.04.7 1.74.7a2.4 2.4 0 0 0 1.82-.74c.47-.49.7-1.11.7-1.87zm-10-3.2a4.46 4.46 0 0 1 1.3 3.23c0 1.25-.44 2.31-1.3 3.2a4.31 4.31 0 0 1-3.22 1.32 4.33 4.33 0 0 1-3.21-1.32 4.4 4.4 0 0 1-1.3-3.2 4.47 4.47 0 0 1 4.51-4.56c1.29 0 2.36.44 3.22 1.33zm-.75 3.23a2.7 2.7 0 0 0-.67-1.86 2.28 2.28 0 0 0-1.8-.76c-.73 0-1.33.26-1.78.76-.46.51-.69 1.13-.69 1.86 0 .73.23 1.34.68 1.84.45.5 1.05.74 1.8.74a2.3 2.3 0 0 0 1.77-.75c.46-.5.7-1.12.7-1.83z"/></defs><use fill="#fdd379" xlink:href="#a" transform="translate(-903 -32)"/></svg>