<svg xmlns="http://www.w3.org/2000/svg" xmlns:xlink="http://www.w3.org/1999/xlink" width="19" height="19"><defs><path id="a" d="M387 108.85v2.62a2.5 2.5 0 0 1-2.52 2.53l-.23-.01h-.02c-2.8-.3-5.54-1.28-7.9-2.81-2.2-1.4-4.1-3.3-5.5-5.49a18.17 18.17 0 0 1-2.82-7.94 2.5 2.5 0 0 1 2.51-2.75h2.65a2.53 2.53 0 0 1 2.5 2.17c.1.79.3 1.56.58 2.3.34.91.12 1.96-.57 2.66l-.7.69a13.28 13.28 0 0 0 4.18 4.17l.7-.69c.7-.7 1.74-.91 2.66-.57a10.54 10.54 0 0 0 2.3.57 2.52 2.52 0 0 1 2.18 2.55zm-2.38-1.03c-.9-.11-1.79-.33-2.64-.65a1 1 0 0 0-1.04.22l-1.11 1.11a.77.77 0 0 1-.92.13 14.82 14.82 0 0 1-5.56-5.55.77.77 0 0 1 .12-.92l1.12-1.12a.99.99 0 0 0 .22-1.03c-.32-.85-.54-1.74-.66-2.63a.99.99 0 0 0-.98-.85h-2.73a.99.99 0 0 0-.9 1.07 16.62 16.62 0 0 0 2.58 7.26 16.42 16.42 0 0 0 5.04 5.03 16.72 16.72 0 0 0 7.32 2.58.99.99 0 0 0 .98-1v-2.65a.99.99 0 0 0-.84-1z"/></defs><use fill="#fff" xlink:href="#a" transform="translate(-368 -95)"/></svg>